<?xml version="1.0"?><svg xmlns="http://www.w3.org/2000/svg"  viewBox="0 0 50 50" width="100px" height="100px">    <path d="M 14.402344 4 C 8.6663437 4 4 8.6663437 4 14.402344 L 4 35.597656 C 4 41.333656 8.6663437 46 14.402344 46 L 35.597656 46 C 41.333656 46 46 41.333656 46 35.597656 L 46 14.402344 C 46 8.6663437 41.332703 4 35.595703 4 L 14.402344 4 z M 16.527344 13 L 33.472656 13 C 35.417656 13 37 14.582344 37 16.527344 L 37 33.472656 C 37 35.417656 35.416703 37 33.470703 37 L 16.527344 37 C 14.582344 37 13 35.417656 13 33.472656 L 13 16.527344 C 13 14.582344 14.582344 13 16.527344 13 z M 19 19 L 19 31 L 31 31 L 31 19 L 19 19 z"/></svg>