<?xml version="1.0" encoding="UTF-8"?>
<svg id="Layer_1" data-name="Layer 1" xmlns="http://www.w3.org/2000/svg" viewBox="0 0 1728 1728">
  <defs>
    <style>
      .cls-1 {
        fill: #fff;
        stroke: #000;
        stroke-miterlimit: 10;
        stroke-width: 30px;
      }
    </style>
  </defs>
  <path class="cls-1" d="M1478.98,634.96h-.01c-19.86-19.74-31.03-46.57-31.03-74.57v-96.23c0-110.36-90.06-199.82-201.15-199.82h-97.54c-27.78,0-54.44-10.98-74.14-30.56l-7.64-7.58c-112.59-111.85-294.35-111.85-406.94,0l-7.64,7.58c-19.7,19.58-46.36,30.56-74.14,30.56h-97.54c-111.09,0-201.15,89.46-201.15,199.82v96.22c0,14-2.79,27.71-8.07,40.39-5.27,12.68-13.03,24.32-22.97,34.19-58.1,57.72-87.16,133.58-87.16,209.43s29.06,151.72,87.16,209.44c19.87,19.73,31.04,46.57,31.04,74.57v96.23c0,110.35,90.06,199.81,201.15,199.81h97.53c27.79,0,54.45,10.99,74.16,30.57l75.33,74.82c74.98,74.48,196.56,74.48,271.54,0l75.34-74.83c19.7-19.57,46.36-30.56,74.14-30.56h97.54c111.09,0,201.15-89.46,201.15-199.81v-96.23c0-28,11.17-54.84,31.04-74.57,116.21-115.44,116.21-303.43,0-418.87ZM1365.56,999.2c-16.21,16.1-25.32,37.99-25.32,60.82v78.48c0,90-73.45,162.96-164.05,162.96h-79.55c-22.66,0-44.39,8.96-60.47,24.93l-61.44,61.03c-61.15,60.74-160.31,60.74-221.46,0l-61.43-61.02c-16.08-15.97-37.83-24.94-60.49-24.94h-79.54c-90.6,0-164.05-72.96-164.05-162.96v-78.48c0-22.83-9.11-44.72-25.32-60.82-47.39-47.07-71.08-108.94-71.08-170.81s23.69-123.72,71.08-170.8c8.1-8.05,14.44-17.55,18.74-27.89,4.3-10.34,6.58-21.52,6.58-32.94v-78.47c0-90,73.45-162.96,164.05-162.96h79.55c22.66,0,44.39-8.97,60.47-24.93l6.22-6.19c91.83-91.21,240.07-91.21,331.9,0l6.22,6.19c16.08,15.96,37.81,24.93,60.47,24.93h79.55c90.6,0,164.05,72.96,164.05,162.96v78.48c0,22.83,9.11,44.72,25.31,60.81h.01c94.78,94.16,94.78,247.47,0,341.62Z"/>
  <path class="cls-1" d="M1508.71,944.04h0c-9.26-26.43-7.59-55.45,4.63-80.64l42.01-86.58c48.18-99.29,6.2-219.09-93.74-267.58l-87.76-42.58c-24.99-12.13-44.19-33.64-53.36-59.86l-3.56-10.15c-52.47-149.78-216-229.12-366.12-177.64l-10.18,3.48c-26.27,9.02-55.05,7.26-80.04-4.87l-87.76-42.58c-99.95-48.49-220.02-7.32-268.2,91.97l-42,86.57c-6.11,12.6-14.61,23.71-24.89,32.82-10.28,9.11-22.34,16.19-35.59,20.73-77.47,26.57-136.73,82.13-169.84,150.37-33.12,68.25-40.09,149.19-13.01,226.48,9.26,26.42,7.6,55.45-4.63,80.64l-42.01,86.58c-48.17,99.28-6.2,219.08,93.75,267.58l87.75,42.57c25,12.13,44.19,33.66,53.38,59.88l35.11,100.2c34.95,99.74,144.33,152.81,244.3,118.54l100.45-34.44c26.27-9.01,55.05-7.26,80.04,4.87l87.76,42.58c99.95,48.49,220.02,7.32,268.2-91.96l42.01-86.58c12.22-25.19,33.99-44.46,60.48-53.54,154.95-53.13,237.01-222.26,182.85-376.85ZM1247.67,1222.23c-21.61,7.41-39.36,23.13-49.33,43.67l-34.26,70.61c-39.29,80.97-137.22,114.55-218.73,75l-71.57-34.73c-20.39-9.89-43.85-11.32-65.29-3.97l-81.92,28.09c-81.53,27.95-170.74-15.33-199.25-96.67l-28.63-81.72c-7.5-21.39-23.15-38.95-43.54-48.84l-71.56-34.72c-81.51-39.55-115.74-137.25-76.46-218.23l34.26-70.61c9.97-20.54,11.33-44.21,3.77-65.77-22.09-63.04-16.39-129.04,10.61-184.7,27-55.65,75.32-100.97,138.51-122.64,10.8-3.71,20.65-9.49,29.04-16.91,8.38-7.43,15.31-16.49,20.3-26.76l34.25-70.6c39.29-80.97,137.22-114.55,218.73-75l71.57,34.73c20.39,9.89,43.85,11.31,65.29,3.97l8.3-2.85c122.43-41.97,255.8,22.74,298.61,144.88l2.89,8.28c7.5,21.38,23.13,38.93,43.52,48.83l71.57,34.73c81.51,39.55,115.74,137.25,76.46,218.23l-34.26,70.61c-9.97,20.54-11.33,44.21-3.77,65.76h0c44.17,126.09-22.75,264.02-149.12,307.36Z"/>
</svg>